	<svg xmlns="http://www.w3.org/2000/svg" xmlns:xlink="http://www.w3.org/1999/xlink" version="1.1" width="64" height="64" viewBox="0 0 100 100">


		<defs>
			<g id="background">
<path fill="url(#background-gradient)" stroke="none" d=" M 97.35 2.65 Q 95.7 1 93.35 1 L 15.2 1 Q 12.55 1 10.7 2.85 8.85 4.7 8.85 7.25 L 8.85 92.65 Q 8.85 95.3 10.7 97.15 12.55 99 15.2 99 L 93.35 99 Q 95.7 99 97.35 97.35 99.05 95.7 99.05 93.35 L 99.05 6.55 Q 99.05 4.2 97.35 2.65 Z"/>
</g><g id="bottom-1">
<path fill="#000000" fill-opacity="0.14" stroke="none" d=" M 97.3 2.55 Q 95.6 0.9 93.25 0.9 L 15.1 0.9 Q 12.5 0.9 10.6 2.75 8.75 4.65 8.75 7.15 L 8.75 92.55 Q 8.75 95 10.5 96.9 12.2 98.75 14.65 98.85 L 14.65 10.2 Q 14.65 8.85 15.6 7.75 16.7 6.8 18.05 6.8 L 98.95 6.8 98.95 6.5 Q 98.95 4.15 97.3 2.55 Z"/>
</g><mask id="mask">
<path fill="#FFFFFF" stroke="none" d=" M 96.85 3.15 Q 95.6 1.95 93.95 1.95 L 6.2 1.95 Q 4.4 1.95 3.25 3.15 1.95 4.4 1.95 6.05 L 1.95 77.9 Q 2.0091796875 78.159765625 1.95 78.5 L 1.95 78.95 Q 2.0091796875 81.0947265625 1.95 82.6 L 1.95 93.8 Q 1.95 95.6 3.25 96.85 4.4 98.05 6.2 98.05 L 93.95 98.05 Q 95.6 98.05 96.85 96.85 98.05 95.6 98.05 93.8 L 98.05 6.05 Q 98.05 4.4 96.85 3.15 Z"/>
</mask><g id="bottom-2">
<path fill="#ffffff" fill-opacity="1" stroke="none" d=" M 85.9 69 Q 87.85 69 87.85 71 87.85 71.75 87.25 72.35 86.65 72.95 85.9 72.95 L 66.3 72.95 Q 64.3 72.95 64.3 74.9 64.3 75.7 64.9 76.25 65.4 76.85 66.3 76.85 L 91.75 76.85 Q 93.75 76.85 93.75 78.8 93.75 79.6 93.15 80.2 92.55 80.8 91.75 80.8 L 72.15 80.8 Q 70.2 80.8 70.2 82.75 70.2 84.7 72.15 84.7 L 99.05 84.7 99.05 65.1 80 65.1 Q 78.05 65.1 78.05 67.05 78.05 67.85 78.65 68.45 79.1 69 80 69 L 85.9 69 Z"/>
</g><g id="bottom-3">
<path fill="#000000" fill-opacity="1" stroke="none" d=" M 1 47.75 Q 0 47.75 0 48.7 L 0 66.25 Q 0 67.25 1 67.25 1.95 67.25 1.95 66.25 L 1.95 48.7 Q 1.95 47.75 1 47.75 M 1.95 35.6 Q 1.95 34.7 1 34.7 0 34.7 0 35.6 L 0 40.2 Q 0 41.15 1 41.15 1.95 41.15 1.95 40.2 L 1.95 35.6 M 93.95 1.95 Q 95.6 1.95 96.85 3.15 98.05 4.4 98.05 6.05 L 98.05 93.8 Q 98.05 95.6 96.85 96.85 95.6 98.05 93.95 98.05 L 6.2 98.05 Q 4.4 98.05 3.25 96.85 1.95 95.6 1.95 93.8 L 1.95 78.5 Q 2.15 77.35 1 77.35 0.3 77.35 0.1 77.95 0 78.25 0 78.5 L 0 93.8 Q 0 96.35 1.75 98.25 3.65 100 6.2 100 L 93.95 100 Q 96.5 100 98.25 98.25 100 96.35 100 93.8 L 100 6.05 Q 100 3.6 98.25 1.75 96.5 0 93.95 0 L 6.2 0 Q 3.65 0 1.75 1.75 0 3.5 0 6.05 L 0 28.15 0.1 28.7 Q 0.3 29.3 1 29.3 2.15 29.3 1.95 28.15 L 1.95 6.05 Q 1.95 4.4 3.25 3.15 4.4 1.95 6.2 1.95 L 93.95 1.95 Z"/>
</g>

	<linearGradient id="background-gradient" x1="0" y1="0" y2="1" x2="0" >
		<stop stop-color="#57DCB3" offset="0%"/>
		<stop stop-color="#57DCB3" offset="100%"/>
	</linearGradient>



			<g transform="scale(3.0959753053263688) translate(0 0.14999985694885254)" id="picture"><path d="M20.3 2h2.5c.6 0 1-.4 1-1s-.4-1-1-1h-2.5c-.6 0-1 .4-1 1s.4 1 1 1zM14 30H9.3c-.6 0-1 .4-1 1s.4 1 1 1H14c.6 0 1-.4 1-1s-.4-1-1-1zM31.2 7.5c-.6 0-1 .4-1 1v4.8c0 .6.4 1 1 1s1-.4 1-1V8.5c0-.6-.4-1-1-1zM27.5 2c1.2 0 2.3.9 2.6 2 .1.4.5.7 1 .7h.3c.5-.2.8-.7.6-1.3-.6-2-2.4-3.3-4.5-3.4-.6 0-1 .4-1 1s.4 1 1 1zM4.7 30c-1.2-.2-2.1-1.2-2.3-2.4-.1-.5-.6-.9-1.2-.8-.5.1-.9.6-.8 1.2.3 2 1.9 3.6 4 4h.2c.5 0 .9-.3 1-.8 0-.6-.4-1.1-.9-1.2zm26.5-13c-.6 0-1 .4-1 1v4.8c0 .6.4 1 1 1s1-.4 1-1V18c0-.6-.4-1-1-1zm.1 9.5c-.5-.1-1 .3-1.1.9-.1 1.2-1 2.2-2.2 2.5-.5.1-.9.7-.7 1.2.1.5.5.8 1 .8h.2c2-.5 3.5-2.2 3.7-4.3.1-.6-.3-1-.9-1.1zM23.6 30h-4.8c-.6 0-1 .4-1 1s.4 1 1 1h4.8c.6 0 1-.4 1-1s-.5-1-1-1zM1.3 24c.6 0 1-.4 1-1v-2.5c0-.6-.4-1-1-1s-1 .4-1 1V23c0 .5.5 1 1 1zM19 4.9C19 2.2 16.8 0 14.1 0H4.9C2.2 0 0 2.2 0 4.9v9.3c0 2.7 2.2 4.9 4.9 4.9h9.3c2.7 0 4.9-2.2 4.9-4.9V4.9H19zm-2 9.2c0 1.6-1.3 2.9-2.9 2.9H4.9C3.3 17 2 15.7 2 14.1V4.9C2 3.3 3.3 2 4.9 2h9.3C15.7 2 17 3.3 17 4.9v9.2zm9 4.9c-.6 0-1 .4-1 1v3.3l-4.2-4.2c-.4-.4-1-.4-1.4 0s-.4 1 0 1.4l4.4 4.4H20c-.6 0-1 .4-1 1s.4 1 1 1h6c.6 0 1-.4 1-1v-6c0-.5-.4-.9-1-.9z"/></g>

	<linearGradient id="picture-gradient" x1="0" y1="0" y2="1" x2="0" >
		<stop stop-color="#060606" offset="0%"/>
		<stop stop-color="#1c1b1e" offset="100%"/>
	</linearGradient>

		</defs>



			<use xlink:href="#background" fill="url(#background-gradient)" />



			<g mask="url(#mask)">
				<g transform="
				        translate(
                                50 50
)
                            translate(-5 -10)  scale(0.5)
                            translate(
                                -50 -50
)">
						<use xlink:href="#picture" fill="url(#picture-gradient)"  />
				</g>
			</g>

		<use xlink:href="#bottom-1" /><use xlink:href="#bottom-2" /><use xlink:href="#bottom-3" />



	</svg>
